<svg width="837" height="158" viewBox="0 0 837 158" fill="none" xmlns="http://www.w3.org/2000/svg">
<path d="M0 157.989V0L77.425 75.8965L154.85 0V43.3694L77.425 120.815L30.97 74.3476V157.989H0Z" fill="#D72638"/>
<path d="M210.597 46.4785H167.239L83.6201 128.652H144.012L113.042 158H156.4L216.791 99.3044H156.4L210.597 46.4785Z" fill="white"/>
<path d="M799.394 37.6211H837V49.981H813.183V72.8469H832.111V85.2069H813.183V111.781H837V124.141H799.394V37.6211Z" fill="white"/>
<path d="M750.506 37.6211H770.396C777.311 37.6211 782.355 39.2691 785.528 42.5651C788.7 45.7787 790.286 50.7638 790.286 57.5206V62.8354C790.286 71.8169 787.358 77.5025 781.501 79.8921V80.1393C784.755 81.1281 787.033 83.1469 788.334 86.1957C789.717 89.2444 790.409 93.3232 790.409 98.432V113.635C790.409 116.107 790.49 118.126 790.653 119.691C790.815 121.174 791.222 122.657 791.873 124.141H778.206C777.718 122.74 777.392 121.421 777.23 120.186C777.067 118.95 776.986 116.725 776.986 113.511V97.6904C776.986 93.7352 776.335 90.9748 775.033 89.4092C773.813 87.8437 771.657 87.0609 768.566 87.0609H763.929V124.141H750.506V37.6211ZM768.81 74.7009C771.495 74.7009 773.488 74.0005 774.789 72.5997C776.172 71.1989 776.864 68.8505 776.864 65.5546V58.8802C776.864 55.749 776.294 53.483 775.155 52.0822C774.098 50.6814 772.389 49.981 770.03 49.981H763.929V74.7009H768.81Z" fill="white"/>
<path d="M711.504 37.6211H729.339L742.985 124.141H729.818L727.424 106.96V107.208H712.461L710.067 124.141H697.858L711.504 37.6211ZM725.868 95.4656L720.003 52.7002H719.763L714.018 95.4656H725.868Z" fill="white"/>
<path d="M630.167 37.6211H643.026L648.97 104.118H649.213L655.521 37.6211H670.078L676.386 104.118H676.629L682.573 37.6211H694.097L685.484 124.141H668.865L662.8 65.8018H662.557L656.491 124.141H638.78L630.167 37.6211Z" fill="white"/>
<path d="M599.032 49.981H585.04V37.6211H626.407V49.981H612.415V124.141H599.032V49.981Z" fill="white"/>
<path d="M543.674 37.6211H581.28V49.981H557.889V74.0829H576.24V86.4429H557.889V124.141H543.674V37.6211Z" fill="white"/>
<path d="M515.469 124.141C508.781 124.141 503.662 122.218 500.112 118.373C496.561 114.527 494.786 109.094 494.786 102.072V55.9281C494.786 48.9063 496.561 43.4727 500.112 39.6273C503.662 35.782 508.781 33.8594 515.469 33.8594C522.157 33.8594 527.276 35.782 530.827 39.6273C534.377 43.4727 536.152 48.9063 536.152 55.9281V102.072C536.152 109.094 534.377 114.527 530.827 118.373C527.276 122.218 522.157 124.141 515.469 124.141ZM515.469 111.602C520.176 111.602 522.529 108.718 522.529 102.95V55.0504C522.529 49.2824 520.176 46.3984 515.469 46.3984C510.763 46.3984 508.41 49.2824 508.41 55.0504V102.95C508.41 108.718 510.763 111.602 515.469 111.602Z" fill="white"/>
<path d="M468.232 124.141C462.118 124.141 457.493 122.26 454.36 118.498C451.226 114.653 449.659 109.177 449.659 102.072V97.0563H461.583V103.075C461.583 108.759 463.761 111.602 468.118 111.602C470.258 111.602 471.863 110.933 472.933 109.595C474.08 108.174 474.653 105.917 474.653 102.824C474.653 99.1461 473.889 95.9278 472.36 93.1692C470.831 90.327 468.003 86.9414 463.876 83.0125C458.678 77.9969 455.047 73.4828 452.984 69.4703C450.92 65.3742 449.888 60.7766 449.888 55.6774C449.888 48.7391 451.493 43.3891 454.703 39.6273C457.914 35.782 462.576 33.8594 468.691 33.8594C474.729 33.8594 479.277 35.782 482.335 39.6273C485.468 43.3891 487.035 48.8227 487.035 55.9281V59.5645H475.112V55.0504C475.112 52.041 474.577 49.8676 473.506 48.5301C472.436 47.109 470.869 46.3984 468.806 46.3984C464.602 46.3984 462.5 49.1988 462.5 54.7996C462.5 57.9762 463.264 60.9438 464.793 63.7024C466.398 66.461 469.264 69.8047 473.392 73.7336C478.666 78.7492 482.296 83.3051 484.284 87.4012C486.271 91.4973 487.265 96.3039 487.265 101.821C487.265 109.01 485.621 114.527 482.335 118.373C479.124 122.218 474.424 124.141 468.232 124.141Z" fill="white"/>
<path d="M381.968 37.6211H400.998C407.19 37.6211 411.834 39.4339 414.93 43.0595C418.026 46.6851 419.574 51.9998 419.574 59.0038V102.758C419.574 109.762 418.026 115.077 414.93 118.702C411.834 122.328 407.19 124.141 400.998 124.141H381.968V37.6211ZM400.771 111.781C402.81 111.781 404.358 111.122 405.415 109.803C406.548 108.485 407.114 106.342 407.114 103.376V58.3858C407.114 55.4194 406.548 53.277 405.415 51.9586C404.358 50.6402 402.81 49.981 400.771 49.981H394.428V111.781H400.771Z" fill="white"/>
<path d="M342.966 37.6211H360.801L374.447 124.141H361.28L358.886 106.96V107.208H343.923L341.529 124.141H329.32L342.966 37.6211ZM357.33 95.4656L351.464 52.7002H351.225L345.479 95.4656H357.33Z" fill="white"/>
<path d="M265.39 37.6211H284.811L293.47 99.5444H293.718L302.377 37.6211H321.799V124.141H308.933V58.633H308.686L298.79 124.141H287.409L277.513 58.633H277.265V124.141H265.39V37.6211Z" fill="white"/>
</svg>
