<svg width="276" height="52" viewBox="0 0 276 52" fill="none" xmlns="http://www.w3.org/2000/svg">
<path d="M0 51.9976V-0.0012207L25.4905 24.9786L50.981 -0.0012207V14.273L25.4905 39.7626L10.1962 24.4688V51.9976H0Z" fill="#D72638"/>
<path d="M69.3346 15.2963H55.0599L27.5302 42.3421H47.4128L37.2165 52.0013H51.4912L71.3738 32.6829H51.4912L69.3346 15.2963Z" fill="white"/>
<path d="M263.183 12.381H275.564V16.449H267.723V23.9749H273.955V28.0429H267.723V36.7892H275.564V40.8572H263.183V12.381Z" fill="white"/>
<path d="M247.088 12.381H253.636C255.913 12.381 257.573 12.9234 258.618 14.0082C259.663 15.0659 260.185 16.7067 260.185 18.9305V20.6798C260.185 23.6359 259.221 25.5072 257.292 26.2937V26.375C258.364 26.7005 259.113 27.3649 259.542 28.3683C259.997 29.3718 260.225 30.7142 260.225 32.3957V37.3994C260.225 38.213 260.252 38.8774 260.305 39.3927C260.359 39.8809 260.493 40.369 260.707 40.8572H256.208C256.047 40.3961 255.94 39.9622 255.886 39.5554C255.833 39.1486 255.806 38.4164 255.806 37.3587V32.1516C255.806 30.8498 255.592 29.9413 255.163 29.426C254.761 28.9108 254.052 28.6531 253.034 28.6531H251.507V40.8572H247.088V12.381ZM253.114 24.5851C253.998 24.5851 254.654 24.3546 255.083 23.8935C255.538 23.4325 255.766 22.6595 255.766 21.5747V19.378C255.766 18.3474 255.578 17.6016 255.203 17.1406C254.855 16.6795 254.293 16.449 253.516 16.449H251.507V24.5851H253.114Z" fill="white"/>
<path d="M234.247 12.381H240.119L244.612 40.8572H240.277L239.489 35.2026V35.284H234.563L233.774 40.8572H229.755L234.247 12.381ZM238.976 31.4194L237.045 17.344H236.967L235.075 31.4194H238.976Z" fill="white"/>
<path d="M207.469 12.381H211.702L213.659 34.267H213.739L215.816 12.381H220.609L222.686 34.267H222.765L224.722 12.381H228.517L225.681 40.8572H220.209L218.212 21.6561H218.133L216.136 40.8572H210.305L207.469 12.381Z" fill="white"/>
<path d="M197.218 16.449H192.612V12.381H206.231V16.449H201.624V40.8572H197.218V16.449Z" fill="white"/>
<path d="M178.993 12.381H191.374V16.449H183.673V24.3817H189.714V28.4497H183.673V40.8572H178.993V12.381Z" fill="white"/>
<path d="M169.707 40.8572C167.505 40.8572 165.82 40.2244 164.651 38.9588C163.482 37.6932 162.898 35.9048 162.898 33.5937V18.4064C162.898 16.0953 163.482 14.3069 164.651 13.0413C165.82 11.7757 167.505 11.1429 169.707 11.1429C171.909 11.1429 173.594 11.7757 174.763 13.0413C175.932 14.3069 176.517 16.0953 176.517 18.4064V33.5937C176.517 35.9048 175.932 37.6932 174.763 38.9588C173.594 40.2244 171.909 40.8572 169.707 40.8572ZM169.707 36.7302C171.257 36.7302 172.031 35.781 172.031 33.8826V18.1175C172.031 16.2191 171.257 15.2699 169.707 15.2699C168.158 15.2699 167.383 16.2191 167.383 18.1175V33.8826C167.383 35.781 168.158 36.7302 169.707 36.7302Z" fill="white"/>
<path d="M154.155 40.8572C152.142 40.8572 150.62 40.2381 149.588 39C148.556 37.7344 148.04 35.9323 148.04 33.5937V31.9429H151.966V33.9239C151.966 35.7948 152.683 36.7302 154.118 36.7302C154.822 36.7302 155.351 36.5101 155.703 36.0699C156.08 35.6022 156.269 34.8593 156.269 33.8413C156.269 32.6307 156.018 31.5715 155.514 30.6635C155.011 29.7281 154.08 28.6138 152.721 27.3207C151.01 25.6699 149.815 24.1842 149.135 22.8635C148.456 21.5154 148.116 20.0022 148.116 18.3239C148.116 16.0403 148.644 14.2794 149.701 13.0413C150.758 11.7757 152.293 11.1429 154.306 11.1429C156.294 11.1429 157.792 11.7757 158.798 13.0413C159.83 14.2794 160.346 16.0678 160.346 18.4064V19.6032H156.42V18.1175C156.42 17.127 156.244 16.4117 155.892 15.9715C155.539 15.5038 155.024 15.2699 154.344 15.2699C152.96 15.2699 152.268 16.1916 152.268 18.035C152.268 19.0805 152.52 20.0572 153.023 20.9651C153.551 21.8731 154.495 22.9736 155.854 24.2667C157.59 25.9175 158.786 27.417 159.44 28.7651C160.094 30.1133 160.421 31.6953 160.421 33.5112C160.421 35.8773 159.88 37.6932 158.798 38.9588C157.741 40.2244 156.194 40.8572 154.155 40.8572Z" fill="white"/>
<path d="M125.755 12.381H132.02C134.058 12.381 135.587 12.9776 136.607 14.1709C137.626 15.3642 138.136 17.1135 138.136 19.4187V33.8195C138.136 36.1247 137.626 37.874 136.607 39.0673C135.587 40.2605 134.058 40.8572 132.02 40.8572H125.755V12.381ZM131.945 36.7892C132.616 36.7892 133.126 36.5722 133.474 36.1383C133.847 35.7044 134.034 34.9992 134.034 34.0229V19.2153C134.034 18.239 133.847 17.5338 133.474 17.0999C133.126 16.666 132.616 16.449 131.945 16.449H129.857V36.7892H131.945Z" fill="white"/>
<path d="M112.914 12.381H118.786L123.279 40.8572H118.944L118.155 35.2026V35.284H113.229L112.441 40.8572H108.421L112.914 12.381ZM117.643 31.4194L115.712 17.344H115.633L113.742 31.4194H117.643Z" fill="white"/>
<path d="M87.3738 12.381H93.7679L96.6188 32.7618H96.7002L99.5511 12.381H105.945V40.8572H101.71V19.2966H101.628L98.37 40.8572H94.6232L91.365 19.2966H91.2836V40.8572H87.3738V12.381Z" fill="white"/>
</svg>
